<?xml version="1.0" encoding="UTF-8"?>
<svg id="Layer_1" data-name="Layer 1" xmlns="http://www.w3.org/2000/svg" viewBox="0 0 711.46 1060.97">
  <defs>
    <style>
      .cls-1 {
        fill: #fff;
        stroke-width: 0px;
      }
    </style>
  </defs>
  <path class="cls-1" d="M355.44,1060.89c-53.4,0-106.81.2-160.21-.06-45.81-.22-86.79-14.85-122.33-43.69-35.38-28.71-58.24-65.5-68.27-110.07C1.69,893.97,0,880.71,0,867.24c.03-86,0-172,.03-258,.01-30.86,23.82-56.83,52.17-61.14,3.69-.56,7.45-.92,11.19-.96,11.63-.12,23.26-.06,34.89-.04,28.65.05,54.36,20.93,60.62,49.94.89,4.11,1.16,8.43,1.16,12.65.07,53.89-.41,107.79.21,161.68.45,38.75,15.61,71.39,44.78,97.18,17.94,15.86,38.87,25.81,62.38,30.08,7.68,1.4,15.59,2.1,23.4,2.14,43.57.2,87.15.42,130.72-.01,31.3-.31,59.25-10.58,83.32-30.9,22.27-18.8,36.4-42.58,43.13-70.79,2.2-9.22,3.27-18.68,3.28-28.17.06-53.89-.04-107.79.05-161.68.05-30.6,23.85-56.27,52.08-60.75,4.18-.66,8.45-.93,12.68-.99,10.81-.14,21.62.01,32.43-.06,31.32-.2,57.79,24.19,61.88,52.63.51,3.54.95,7.13.95,10.7.05,85.84.19,171.67-.04,257.51-.09,32.86-8.86,63.63-24.94,92.26-16.62,29.58-39.45,53.32-68.29,71.17-23.1,14.29-48.12,23.33-75.07,27.18-11.23,1.6-22.46,2.04-33.77,2.03-51.27-.04-102.55-.02-153.82-.02Z"/>
  <path class="cls-1" d="M551.31,236.55c0-58.15,0-116.3,0-174.45,0-33.83,28.94-61.95,62.09-62.02,11.96-.02,23.92-.02,35.87,0,29.57.05,56.27,22.68,61.09,51.88.63,3.84,1.01,7.78,1.01,11.67.05,115.81.02,231.62.06,347.43,0,30.67-23.84,57.21-52.49,61.4-3.54.52-7.13.91-10.7.94-11.63.12-23.26.05-34.89.04-30.68-.02-56.86-23.94-61.04-52.23-.55-3.7-.95-7.46-.95-11.19-.06-57.82-.04-115.65-.04-173.47Z"/>
  <path class="cls-1" d="M435.83,289.18v21.31h-.09c-.01,10.87,0,21.76,0,32.63.01,28.43-23.84,53.04-52.49,56.91-3.55.48-7.13.84-10.7.88-11.64.1-23.27.04-34.89.03-30.68-.02-56.86-22.2-61.04-48.42-.54-3.44-.95-6.91-.95-10.38-.06-53.6-.05-107.2-.05-160.82v-21.31h.09c.01-10.87,0-21.76,0-32.63-.01-28.43,23.84-53.04,52.5-56.91,3.54-.48,7.13-.84,10.7-.88,11.63-.1,23.25-.04,34.88-.03,30.68.02,56.86,22.2,61.04,48.42.54,3.44.95,6.91.95,10.38.07,53.6.05,107.2.05,160.82Z"/>
  <path class="cls-1" d="M.02,236.58c0-58.14-.06-116.29.04-174.43.03-16.45,6.22-30.49,17.51-42.43C27.38,9.32,39.37,3.18,53.35.79c2.89-.49,5.86-.66,8.8-.68,12.12-.07,24.24-.21,36.36.01,16.06.29,29.89,6.15,41.68,17.12,11.12,10.35,17.37,23.11,19.65,37.97.27,1.77.27,3.59.27,5.39.01,117.27.07,234.54-.07,351.81-.02,14.93-5.76,27.99-15.67,39.17-10.4,11.75-23.47,18.56-38.92,20.91-1.93.29-3.91.34-5.87.35-12.94.03-25.88.25-38.82-.04-15.5-.35-28.9-6.1-40.35-16.58-11.48-10.51-17.81-23.63-20.17-38.82-.32-2.09-.22-4.25-.22-6.37-.01-58.14,0-116.29,0-174.43Z"/>
</svg>